<svg width="25" height="25" viewBox="0 0 25 25" fill="none" xmlns="http://www.w3.org/2000/svg">
<g id="vuesax/outline/tick-square">
<g id="tick-square">
<path id="Vector" d="M15.5 23.25H9.5C4.07 23.25 1.75 20.93 1.75 15.5V9.5C1.75 4.07 4.07 1.75 9.5 1.75H15.5C20.93 1.75 23.25 4.07 23.25 9.5V15.5C23.25 20.93 20.93 23.25 15.5 23.25ZM9.5 3.25C4.89 3.25 3.25 4.89 3.25 9.5V15.5C3.25 20.11 4.89 21.75 9.5 21.75H15.5C20.11 21.75 21.75 20.11 21.75 15.5V9.5C21.75 4.89 20.11 3.25 15.5 3.25H9.5Z" fill="#F9F9F9"/>
<path id="Vector_2" d="M11.0799 16.0796C10.8799 16.0796 10.6899 15.9996 10.5499 15.8596L7.71994 13.0296C7.42994 12.7396 7.42994 12.2596 7.71994 11.9696C8.00994 11.6796 8.48994 11.6796 8.77994 11.9696L11.0799 14.2696L16.2199 9.12961C16.5099 8.83961 16.9899 8.83961 17.2799 9.12961C17.5699 9.41961 17.5699 9.89961 17.2799 10.1896L11.6099 15.8596C11.4699 15.9996 11.2799 16.0796 11.0799 16.0796Z" fill="#F9F9F9"/>
</g>
</g>
</svg>
