<svg width="33" height="32" viewBox="0 0 33 32" fill="none" xmlns="http://www.w3.org/2000/svg">
<path id="Subtract" fill-rule="evenodd" clip-rule="evenodd" d="M1.25058 3.5935C0.5 5.03843 0.5 6.93673 0.5 10.7333V21.2667C0.5 25.0633 0.5 26.9616 1.25058 28.4065C1.88308 29.6241 2.87588 30.6169 4.0935 31.2494C5.53843 32 7.43673 32 11.2333 32H21.7667C25.5633 32 27.4616 32 28.9065 31.2494C30.1241 30.6169 31.1169 29.6241 31.7494 28.4065C32.5 26.9616 32.5 25.0633 32.5 21.2667V10.7333C32.5 6.93673 32.5 5.03843 31.7494 3.5935C31.1169 2.37588 30.1241 1.38308 28.9065 0.750577C27.4616 0 25.5633 0 21.7667 0H11.2333C7.43673 0 5.53843 0 4.0935 0.750577C2.87588 1.38308 1.88308 2.37588 1.25058 3.5935ZM23.434 15.9999L22.7229 20.4444H19.1673V31.9999H13.834V20.4444H9.83398V15.9999H13.834V12.4444C13.834 8.44439 16.4118 6.22217 20.0562 6.22217C21.2118 6.22217 22.4562 6.39995 23.6118 6.57772V10.6666H21.5673C19.6118 10.6666 19.1673 11.6444 19.1673 12.8888V15.9999H23.434Z" fill="#FF9431"/>
</svg>
