<svg width="33" height="32" viewBox="0 0 33 32" fill="none" xmlns="http://www.w3.org/2000/svg">
<g id="Subtract">
<path fill-rule="evenodd" clip-rule="evenodd" d="M1.00058 3.5935C0.25 5.03843 0.25 6.93673 0.25 10.7333V21.2667C0.25 25.0633 0.25 26.9616 1.00058 28.4065C1.63308 29.6241 2.62588 30.6169 3.8435 31.2494C5.28843 32 7.18673 32 10.9833 32H21.5167C25.3133 32 27.2116 32 28.6565 31.2494C29.8741 30.6169 30.8669 29.6241 31.4994 28.4065C32.25 26.9616 32.25 25.0633 32.25 21.2667V10.7333C32.25 6.93673 32.25 5.03843 31.4994 3.5935C30.8669 2.37588 29.8741 1.38308 28.6565 0.750577C27.2116 0 25.3133 0 21.5167 0H10.9833C7.18673 0 5.28843 0 3.8435 0.750577C2.62588 1.38308 1.63308 2.37588 1.00058 3.5935ZM11.4348 4.43407C12.6759 4.37759 13.0725 4.36377 16.2327 4.36377H16.229C19.3902 4.36377 19.7853 4.37759 21.0265 4.43407C22.2652 4.4908 23.1113 4.68692 23.8531 4.97468C24.6191 5.27165 25.2664 5.66922 25.9136 6.3165C26.5609 6.96328 26.9584 7.6125 27.2566 8.37783C27.5426 9.11771 27.739 9.96328 27.7972 11.2021C27.8529 12.4433 27.8675 12.8399 27.8675 16.0001C27.8675 19.1604 27.8529 19.556 27.7972 20.7972C27.739 22.0355 27.5426 22.8813 27.2566 23.6215C26.9584 24.3866 26.5609 25.0358 25.9136 25.6826C25.2671 26.3298 24.6189 26.7284 23.8538 27.0256C23.1134 27.3133 22.2669 27.5095 21.0282 27.5662C19.787 27.6227 19.3916 27.6365 16.2312 27.6365C13.0713 27.6365 12.675 27.6227 11.4338 27.5662C10.1953 27.5095 9.3495 27.3133 8.60916 27.0256C7.84433 26.7284 7.19514 26.3298 6.54861 25.6826C5.9016 25.0358 5.50404 24.3866 5.20659 23.6212C4.91909 22.8813 4.72297 22.0358 4.666 20.797C4.60976 19.5558 4.5957 19.1604 4.5957 16.0001C4.5957 12.8399 4.61025 12.443 4.66576 11.2018C4.72152 9.96353 4.91787 9.11771 5.20635 8.37759C5.50452 7.6125 5.90209 6.96328 6.54934 6.3165C7.19611 5.66947 7.8453 5.27189 8.61061 4.97468C9.35047 4.68692 10.196 4.4908 11.4348 4.43407ZM15.8449 6.46063C15.6096 6.46052 15.3915 6.46042 15.1888 6.46074V6.45783C13.0202 6.46025 12.6042 6.4748 11.5308 6.52328C10.3963 6.57541 9.78027 6.7645 9.3701 6.9245C8.82709 7.13589 8.43922 7.38801 8.03196 7.79528C7.6247 8.20256 7.3721 8.59044 7.1612 9.13347C7.00193 9.54365 6.81236 10.1594 6.76049 11.294C6.70473 12.5206 6.69358 12.8872 6.69358 15.9946C6.69358 19.1019 6.70473 19.4704 6.76049 20.6971C6.81212 21.8316 7.00193 22.4474 7.1612 22.8571C7.37259 23.4004 7.6247 23.7873 8.03196 24.1946C8.43922 24.6018 8.82709 24.854 9.3701 25.0649C9.78052 25.2241 10.3963 25.4137 11.5308 25.4661C12.7574 25.5218 13.1256 25.534 16.2327 25.534C19.3395 25.534 19.708 25.5218 20.9346 25.4661C22.0691 25.4142 22.6853 25.2251 23.095 25.0651C23.6383 24.8542 24.0249 24.6021 24.4322 24.1948C24.8395 23.7878 25.0921 23.4011 25.303 22.8581C25.4622 22.4484 25.6518 21.8326 25.7037 20.6981C25.7594 19.4714 25.7715 19.1029 25.7715 15.9975C25.7715 12.892 25.7594 12.5235 25.7037 11.2969C25.652 10.1623 25.4622 9.54656 25.303 9.13686C25.0916 8.59383 24.8395 8.20595 24.4322 7.79868C24.0252 7.39141 23.638 7.13928 23.095 6.92838C22.6849 6.7691 22.0691 6.57953 20.9346 6.52765C19.7077 6.47189 19.3395 6.46074 16.2327 6.46074C16.0984 6.46074 15.9692 6.46068 15.8449 6.46063ZM21.0476 9.78874C21.0476 9.01759 21.673 8.39286 22.4439 8.39286V8.39238C23.2148 8.39238 23.8402 9.01783 23.8402 9.78874C23.8402 10.5596 23.2148 11.1851 22.4439 11.1851C21.673 11.1851 21.0476 10.5596 21.0476 9.78874ZM10.2571 16.0001C10.2571 12.7001 12.9325 10.0245 16.2324 10.0244C19.5325 10.0244 22.2073 12.7 22.2073 16.0001C22.2073 19.3003 19.5327 21.9747 16.2327 21.9747C12.9327 21.9747 10.2571 19.3003 10.2571 16.0001ZM20.1114 16.0001C20.1114 13.8578 18.3747 12.1213 16.2327 12.1213C14.0904 12.1213 12.354 13.8578 12.354 16.0001C12.354 18.1422 14.0904 19.8789 16.2327 19.8789C18.3747 19.8789 20.1114 18.1422 20.1114 16.0001Z" fill="url(#paint0_radial_4_237)"/>
<path fill-rule="evenodd" clip-rule="evenodd" d="M1.00058 3.5935C0.25 5.03843 0.25 6.93673 0.25 10.7333V21.2667C0.25 25.0633 0.25 26.9616 1.00058 28.4065C1.63308 29.6241 2.62588 30.6169 3.8435 31.2494C5.28843 32 7.18673 32 10.9833 32H21.5167C25.3133 32 27.2116 32 28.6565 31.2494C29.8741 30.6169 30.8669 29.6241 31.4994 28.4065C32.25 26.9616 32.25 25.0633 32.25 21.2667V10.7333C32.25 6.93673 32.25 5.03843 31.4994 3.5935C30.8669 2.37588 29.8741 1.38308 28.6565 0.750577C27.2116 0 25.3133 0 21.5167 0H10.9833C7.18673 0 5.28843 0 3.8435 0.750577C2.62588 1.38308 1.63308 2.37588 1.00058 3.5935ZM11.4348 4.43407C12.6759 4.37759 13.0725 4.36377 16.2327 4.36377H16.229C19.3902 4.36377 19.7853 4.37759 21.0265 4.43407C22.2652 4.4908 23.1113 4.68692 23.8531 4.97468C24.6191 5.27165 25.2664 5.66922 25.9136 6.3165C26.5609 6.96328 26.9584 7.6125 27.2566 8.37783C27.5426 9.11771 27.739 9.96328 27.7972 11.2021C27.8529 12.4433 27.8675 12.8399 27.8675 16.0001C27.8675 19.1604 27.8529 19.556 27.7972 20.7972C27.739 22.0355 27.5426 22.8813 27.2566 23.6215C26.9584 24.3866 26.5609 25.0358 25.9136 25.6826C25.2671 26.3298 24.6189 26.7284 23.8538 27.0256C23.1134 27.3133 22.2669 27.5095 21.0282 27.5662C19.787 27.6227 19.3916 27.6365 16.2312 27.6365C13.0713 27.6365 12.675 27.6227 11.4338 27.5662C10.1953 27.5095 9.3495 27.3133 8.60916 27.0256C7.84433 26.7284 7.19514 26.3298 6.54861 25.6826C5.9016 25.0358 5.50404 24.3866 5.20659 23.6212C4.91909 22.8813 4.72297 22.0358 4.666 20.797C4.60976 19.5558 4.5957 19.1604 4.5957 16.0001C4.5957 12.8399 4.61025 12.443 4.66576 11.2018C4.72152 9.96353 4.91787 9.11771 5.20635 8.37759C5.50452 7.6125 5.90209 6.96328 6.54934 6.3165C7.19611 5.66947 7.8453 5.27189 8.61061 4.97468C9.35047 4.68692 10.196 4.4908 11.4348 4.43407ZM15.8449 6.46063C15.6096 6.46052 15.3915 6.46042 15.1888 6.46074V6.45783C13.0202 6.46025 12.6042 6.4748 11.5308 6.52328C10.3963 6.57541 9.78027 6.7645 9.3701 6.9245C8.82709 7.13589 8.43922 7.38801 8.03196 7.79528C7.6247 8.20256 7.3721 8.59044 7.1612 9.13347C7.00193 9.54365 6.81236 10.1594 6.76049 11.294C6.70473 12.5206 6.69358 12.8872 6.69358 15.9946C6.69358 19.1019 6.70473 19.4704 6.76049 20.6971C6.81212 21.8316 7.00193 22.4474 7.1612 22.8571C7.37259 23.4004 7.6247 23.7873 8.03196 24.1946C8.43922 24.6018 8.82709 24.854 9.3701 25.0649C9.78052 25.2241 10.3963 25.4137 11.5308 25.4661C12.7574 25.5218 13.1256 25.534 16.2327 25.534C19.3395 25.534 19.708 25.5218 20.9346 25.4661C22.0691 25.4142 22.6853 25.2251 23.095 25.0651C23.6383 24.8542 24.0249 24.6021 24.4322 24.1948C24.8395 23.7878 25.0921 23.4011 25.303 22.8581C25.4622 22.4484 25.6518 21.8326 25.7037 20.6981C25.7594 19.4714 25.7715 19.1029 25.7715 15.9975C25.7715 12.892 25.7594 12.5235 25.7037 11.2969C25.652 10.1623 25.4622 9.54656 25.303 9.13686C25.0916 8.59383 24.8395 8.20595 24.4322 7.79868C24.0252 7.39141 23.638 7.13928 23.095 6.92838C22.6849 6.7691 22.0691 6.57953 20.9346 6.52765C19.7077 6.47189 19.3395 6.46074 16.2327 6.46074C16.0984 6.46074 15.9692 6.46068 15.8449 6.46063ZM21.0476 9.78874C21.0476 9.01759 21.673 8.39286 22.4439 8.39286V8.39238C23.2148 8.39238 23.8402 9.01783 23.8402 9.78874C23.8402 10.5596 23.2148 11.1851 22.4439 11.1851C21.673 11.1851 21.0476 10.5596 21.0476 9.78874ZM10.2571 16.0001C10.2571 12.7001 12.9325 10.0245 16.2324 10.0244C19.5325 10.0244 22.2073 12.7 22.2073 16.0001C22.2073 19.3003 19.5327 21.9747 16.2327 21.9747C12.9327 21.9747 10.2571 19.3003 10.2571 16.0001ZM20.1114 16.0001C20.1114 13.8578 18.3747 12.1213 16.2327 12.1213C14.0904 12.1213 12.354 13.8578 12.354 16.0001C12.354 18.1422 14.0904 19.8789 16.2327 19.8789C18.3747 19.8789 20.1114 18.1422 20.1114 16.0001Z" fill="#FF9431"/>
</g>
<defs>
<radialGradient id="paint0_radial_4_237" cx="0" cy="0" r="1" gradientUnits="userSpaceOnUse" gradientTransform="translate(8.75004 34.4647) rotate(-90) scale(31.7144 29.4969)">
<stop stop-color="#FFDD55"/>
<stop offset="0.1" stop-color="#FFDD55"/>
<stop offset="0.5" stop-color="#FF543E"/>
<stop offset="1" stop-color="#C837AB"/>
</radialGradient>
</defs>
</svg>
