<svg width="81" height="80" viewBox="0 0 81 80" fill="none" xmlns="http://www.w3.org/2000/svg">
<g id="vuesax/outline/chart">
<g id="chart">
<path id="Vector" d="M40.4998 75.8332C20.7332 75.8332 4.6665 59.7665 4.6665 39.9998C4.6665 32.1332 7.1665 24.6665 11.8998 18.3998C12.7332 17.2998 14.2998 17.0998 15.3998 17.9332C16.4998 18.7665 16.7332 20.3332 15.8998 21.4332C11.8332 26.7998 9.6665 33.2332 9.6665 39.9998C9.6665 56.9998 23.4998 70.8332 40.4998 70.8332C57.4998 70.8332 71.3332 56.9998 71.3332 39.9998C71.3332 22.9998 57.4998 9.1665 40.4998 9.1665C39.1332 9.1665 37.9998 8.03317 37.9998 6.6665C37.9998 5.29984 39.1332 4.1665 40.4998 4.1665C60.2665 4.1665 76.3332 20.2332 76.3332 39.9998C76.3332 59.7665 60.2665 75.8332 40.4998 75.8332Z" fill="#F9F9F9"/>
<path id="Vector_2" d="M40.4998 65.8332C26.2665 65.8332 14.6665 54.2332 14.6665 39.9998C14.6665 38.6332 15.7998 37.4998 17.1665 37.4998C18.5332 37.4998 19.6665 38.6332 19.6665 39.9998C19.6665 51.4998 28.9998 60.8332 40.4998 60.8332C51.9998 60.8332 61.3332 51.4998 61.3332 39.9998C61.3332 28.4998 51.9998 19.1665 40.4998 19.1665C39.1332 19.1665 37.9998 18.0332 37.9998 16.6665C37.9998 15.2998 39.1332 14.1665 40.4998 14.1665C54.7332 14.1665 66.3332 25.7665 66.3332 39.9998C66.3332 54.2332 54.7332 65.8332 40.4998 65.8332Z" fill="#F9F9F9"/>
<path id="Vector_3" d="M40.5 55.8332C39.1333 55.8332 38 54.6998 38 53.3332C38 51.9665 39.1333 50.8332 40.5 50.8332C46.4667 50.8332 51.3333 45.9665 51.3333 39.9998C51.3333 34.0332 46.4667 29.1665 40.5 29.1665C39.1333 29.1665 38 28.0332 38 26.6665C38 25.2998 39.1333 24.1665 40.5 24.1665C49.2333 24.1665 56.3333 31.2665 56.3333 39.9998C56.3333 48.7332 49.2333 55.8332 40.5 55.8332Z" fill="#F9F9F9"/>
</g>
</g>
</svg>
