<svg width="81" height="80" viewBox="0 0 81 80" fill="none" xmlns="http://www.w3.org/2000/svg">
<g id="vuesax/outline/timer">
<g id="timer">
<path id="Vector" d="M40.5002 75.8333C23.0335 75.8333 8.8335 61.6333 8.8335 44.1667C8.8335 26.7 23.0335 12.5 40.5002 12.5C57.9668 12.5 72.1668 26.7 72.1668 44.1667C72.1668 61.6333 57.9668 75.8333 40.5002 75.8333ZM40.5002 17.5C25.8002 17.5 13.8335 29.4667 13.8335 44.1667C13.8335 58.8667 25.8002 70.8333 40.5002 70.8333C55.2002 70.8333 67.1668 58.8667 67.1668 44.1667C67.1668 29.4667 55.2002 17.5 40.5002 17.5Z" fill="#F9F9F9"/>
<path id="Vector_2" d="M40.5 45.8332C39.1333 45.8332 38 44.6998 38 43.3332V26.6665C38 25.2998 39.1333 24.1665 40.5 24.1665C41.8667 24.1665 43 25.2998 43 26.6665V43.3332C43 44.6998 41.8667 45.8332 40.5 45.8332Z" fill="#F9F9F9"/>
<path id="Vector_3" d="M50.5 9.1665H30.5C29.1333 9.1665 28 8.03317 28 6.6665C28 5.29984 29.1333 4.1665 30.5 4.1665H50.5C51.8667 4.1665 53 5.29984 53 6.6665C53 8.03317 51.8667 9.1665 50.5 9.1665Z" fill="#F9F9F9"/>
</g>
</g>
</svg>
