<svg width="81" height="80" viewBox="0 0 81 80" fill="none" xmlns="http://www.w3.org/2000/svg">
<g id="vuesax/outline/share">
<g id="share">
<path id="Vector" d="M69.2334 43.5665C67.9668 43.5665 66.9001 42.5998 66.7334 41.3332C65.9334 33.7998 61.8668 26.9665 55.6001 22.6332C54.4668 21.8332 54.2001 20.2999 54.9668 19.1665C55.7668 18.0332 57.3334 17.7665 58.4334 18.5332C65.9001 23.6999 70.7001 31.8332 71.6668 40.7999C71.8001 42.1665 70.8334 43.3999 69.4334 43.5665C69.4001 43.5665 69.3001 43.5665 69.2334 43.5665Z" fill="#F9F9F9"/>
<path id="Vector_2" d="M12.1335 43.7334C12.0335 43.7334 11.9668 43.7334 11.8668 43.7334C10.5002 43.5667 9.50017 42.3334 9.63351 40.9667C10.5335 32 15.3002 23.9 22.6668 18.6667C23.8002 17.8667 25.3668 18.1334 26.1668 19.2667C26.9668 20.4 26.7002 21.9667 25.5668 22.7667C19.3668 27.1334 15.3668 33.9667 14.6002 41.5C14.5002 42.7667 13.4002 43.7334 12.1335 43.7334Z" fill="#F9F9F9"/>
<path id="Vector_3" d="M40.7 75.3669C35.7666 75.3669 31.0666 74.2335 26.6666 72.0335C25.4333 71.4002 24.9333 69.9002 25.5666 68.6669C26.2 67.4335 27.7 66.9335 28.9333 67.5669C36.1333 71.2002 44.8 71.2669 52.0666 67.7669C53.3 67.1669 54.8 67.7002 55.4 68.9335C56 70.1669 55.4666 71.6669 54.2333 72.2669C49.9666 74.3335 45.4333 75.3669 40.7 75.3669Z" fill="#F9F9F9"/>
<path id="Vector_4" d="M40.7 28.1334C34.2 28.1334 28.9333 22.8668 28.9333 16.3668C28.9333 9.86676 34.2 4.6001 40.7 4.6001C47.2 4.6001 52.4667 9.86676 52.4667 16.3668C52.4667 22.8668 47.1667 28.1334 40.7 28.1334ZM40.7 9.63343C36.9667 9.63343 33.9333 12.6668 33.9333 16.4001C33.9333 20.1334 36.9667 23.1668 40.7 23.1668C44.4334 23.1668 47.4667 20.1334 47.4667 16.4001C47.4667 12.6668 44.4 9.63343 40.7 9.63343Z" fill="#F9F9F9"/>
<path id="Vector_5" d="M16.6002 68.9C10.1002 68.9 4.8335 63.6334 4.8335 57.1334C4.8335 50.6667 10.1002 45.3667 16.6002 45.3667C23.1002 45.3667 28.3668 50.6334 28.3668 57.1334C28.3668 63.6 23.1002 68.9 16.6002 68.9ZM16.6002 50.3667C12.8668 50.3667 9.8335 53.4 9.8335 57.1334C9.8335 60.8667 12.8668 63.9 16.6002 63.9C20.3335 63.9 23.3668 60.8667 23.3668 57.1334C23.3668 53.4 20.3335 50.3667 16.6002 50.3667Z" fill="#F9F9F9"/>
<path id="Vector_6" d="M64.4 68.9C57.9 68.9 52.6333 63.6334 52.6333 57.1334C52.6333 50.6667 57.9 45.3667 64.4 45.3667C70.9 45.3667 76.1666 50.6334 76.1666 57.1334C76.1333 63.6 70.8666 68.9 64.4 68.9ZM64.4 50.3667C60.6666 50.3667 57.6333 53.4 57.6333 57.1334C57.6333 60.8667 60.6666 63.9 64.4 63.9C68.1333 63.9 71.1666 60.8667 71.1666 57.1334C71.1333 53.4 68.1333 50.3667 64.4 50.3667Z" fill="#F9F9F9"/>
</g>
</g>
</svg>
