<svg width="81" height="80" viewBox="0 0 81 80" fill="none" xmlns="http://www.w3.org/2000/svg">
<g id="vuesax/outline/lamp-charge">
<g id="lamp-charge">
<path id="Vector" d="M40.5002 46.1665C40.0669 46.1665 39.6335 46.0665 39.2669 45.8332C38.0669 45.1332 37.6669 43.5998 38.3335 42.4332L41.1669 37.4998H38.3669C36.7002 37.4998 35.3335 36.7665 34.6002 35.5332C33.8669 34.2665 33.9335 32.7332 34.7669 31.2665L38.3335 25.0665C39.0335 23.8665 40.5669 23.4665 41.7335 24.1332C42.9335 24.8332 43.3335 26.3665 42.6669 27.5332L39.8335 32.4998H42.6335C44.3002 32.4998 45.6669 33.2332 46.4002 34.4665C47.1335 35.7332 47.0669 37.2665 46.2335 38.7332L42.6669 44.9332C42.2002 45.7332 41.3669 46.1665 40.5002 46.1665Z" fill="#F9F9F9"/>
<path id="Vector_2" d="M49.7334 65.8332H31.3667C29.9001 65.8332 28.0334 65.6665 26.8001 64.3998C25.6001 63.1665 25.6334 61.6332 25.6667 60.5998V57.6332C17.2667 52.0332 11.7334 42.2998 11.7334 33.0332C11.7334 24.2665 15.6667 16.0665 22.5001 10.5665C29.3334 5.0665 38.3001 2.99983 47.0667 4.93317C55.4001 6.7665 62.6001 12.3332 66.3334 19.8332C73.5667 34.3998 66.6001 50.1665 55.4667 57.6665V60.1665C55.5001 61.1332 55.5334 62.8998 54.1667 64.2998C53.1334 65.2998 51.6667 65.8332 49.7334 65.8332ZM30.6334 60.7998C30.8001 60.7998 31.0334 60.8332 31.3334 60.8332H49.7334C50.0667 60.8332 50.3001 60.7998 50.4334 60.7665C50.4334 60.6665 50.4334 60.5332 50.4334 60.4332V56.2332C50.4334 55.3665 50.9001 54.5332 51.6334 54.0998C61.5001 48.1332 68.0334 34.4998 61.8001 21.9998C58.7334 15.8332 52.8001 11.2665 45.9334 9.7665C38.6667 8.1665 31.2334 9.8665 25.5667 14.4332C19.9001 18.9998 16.6667 25.7665 16.6667 33.0332C16.6667 42.2998 23.0667 50.2998 29.4001 54.1332C30.1667 54.5998 30.6001 55.3998 30.6001 56.2665V60.7665C30.6334 60.7665 30.6334 60.7665 30.6334 60.7998Z" fill="#F9F9F9"/>
<path id="Vector_3" d="M52.1669 75.8331C51.9335 75.8331 51.7002 75.7998 51.4669 75.7331C44.2669 73.6665 36.7002 73.6665 29.5002 75.7331C28.1669 76.0998 26.8002 75.3331 26.4002 73.9998C26.0002 72.6665 26.8002 71.2998 28.1335 70.8998C36.2002 68.5998 44.7669 68.5998 52.8335 70.8998C54.1669 71.2665 54.9335 72.6665 54.5669 73.9998C54.2669 75.1331 53.2669 75.8331 52.1669 75.8331Z" fill="#F9F9F9"/>
</g>
</g>
</svg>
