<svg width="43" height="42" viewBox="0 0 43 42" fill="none" xmlns="http://www.w3.org/2000/svg">
<path id="Vector" d="M2.27778 11.8889C2.27778 6.85696 6.35696 2.77778 11.3889 2.77778H18.2855C16.1214 5.19567 14.8056 8.38861 14.8056 11.8889V13.0278C14.8056 20.5757 20.9243 26.6944 28.4722 26.6944H30.2619C34.0031 26.6944 37.3932 25.1912 39.8611 22.7557V30.1111C39.8611 35.143 35.7819 39.2222 30.75 39.2222H11.3889C6.35696 39.2222 2.27778 35.143 2.27778 30.1111V11.8889ZM19.3611 11.8889C19.3611 6.85696 23.4403 2.77778 28.4722 2.77778H30.2619C35.2938 2.77778 39.373 6.85696 39.373 11.8889V13.0278C39.373 18.0597 35.2938 22.1389 30.2619 22.1389H28.4722C23.4403 22.1389 19.3611 18.0597 19.3611 13.0278V11.8889Z" stroke="white" stroke-width="4.55556"/>
</svg>
