<svg width="33" height="32" viewBox="0 0 33 32" fill="none" xmlns="http://www.w3.org/2000/svg">
<path id="Subtract" fill-rule="evenodd" clip-rule="evenodd" d="M1.50058 3.5935C0.75 5.03843 0.75 6.93673 0.75 10.7333V21.2667C0.75 25.0633 0.75 26.9616 1.50058 28.4065C2.13308 29.6241 3.12588 30.6169 4.3435 31.2494C5.78843 32 7.68673 32 11.4833 32H22.0167C25.8133 32 27.7116 32 29.1565 31.2494C30.3741 30.6169 31.3669 29.6241 31.9994 28.4065C32.75 26.9616 32.75 25.0633 32.75 21.2667V10.7333C32.75 6.93673 32.75 5.03843 31.9994 3.5935C31.3669 2.37588 30.3741 1.38308 29.1565 0.750577C27.7116 0 25.8133 0 22.0167 0H11.4833C7.68673 0 5.78843 0 4.3435 0.750577C3.12588 1.38308 2.13308 2.37588 1.50058 3.5935ZM5.91767 14.9146L25.1832 7.4839C26.0631 7.08454 26.9124 7.69538 26.5765 9.04205L23.2957 24.5023C23.0667 25.601 22.4026 25.8639 21.4829 25.3565L16.485 21.6638L16.3863 21.7597C15.2526 22.8619 14.2548 23.8321 14.0827 24.0005L14.0642 24.0186C13.7942 24.2825 13.5713 24.5005 13.0825 24.5005C12.575 24.5005 12.5327 24.3503 12.4307 23.9887C12.4025 23.8887 12.3698 23.7725 12.3213 23.6389L10.4829 18.0023L5.678 16.5026C4.61057 16.1756 4.60277 15.4422 5.91767 14.9146ZM22.0671 10.8249L11.2369 17.6578L13.0619 23.2528L13.423 19.4016L22.6965 11.0346C23.1035 10.6733 22.6078 10.497 22.0671 10.8249Z" fill="#FF9431"/>
</svg>
