<svg width="33" height="32" viewBox="0 0 33 32" fill="none" xmlns="http://www.w3.org/2000/svg">
<path id="Subtract" fill-rule="evenodd" clip-rule="evenodd" d="M1.25058 3.5935C0.5 5.03843 0.5 6.93673 0.5 10.7333V21.2667C0.5 25.0633 0.5 26.9616 1.25058 28.4065C1.88308 29.6241 2.87588 30.6169 4.0935 31.2494C5.53843 32 7.43673 32 11.2333 32H21.7667C25.5633 32 27.4616 32 28.9065 31.2494C30.1241 30.6169 31.1169 29.6241 31.7494 28.4065C32.5 26.9616 32.5 25.0633 32.5 21.2667V10.7333C32.5 6.93673 32.5 5.03843 31.7494 3.5935C31.1169 2.37588 30.1241 1.38308 28.9065 0.750577C27.4616 0 25.5633 0 21.7667 0H11.2333C7.43673 0 5.53843 0 4.0935 0.750577C2.87588 1.38308 1.88308 2.37588 1.25058 3.5935ZM24.9165 7.71942C22.9006 5.70218 20.2613 4.53414 17.4288 4.39493L16.8598 4.38086C10.5822 4.38086 5.47302 9.48727 5.4705 15.7637C5.46968 17.7701 5.99413 19.7283 6.99081 21.4547L5.375 27.3536L11.4126 25.7706C13.0762 26.6776 14.9491 27.1555 16.8553 27.1562H16.86C23.137 27.1562 28.2466 22.0493 28.2492 15.7727C28.2503 12.7311 27.0668 9.87104 24.9165 7.71942ZM12.0381 23.9148L11.6923 23.7098L8.10956 24.6491L9.06587 21.1577L8.84079 20.7997C7.8932 19.2933 7.39275 17.5522 7.39346 15.7643C7.39554 10.5476 11.6421 6.30352 16.8637 6.30352C19.3922 6.30435 21.7689 7.28986 23.5562 9.07835C25.3435 10.8667 26.3272 13.2439 26.3262 15.7721C26.3241 20.9891 22.0775 25.2337 16.86 25.2337H16.8561C15.1575 25.233 13.4915 24.7769 12.0381 23.9148ZM22.208 18.2235C22.4065 18.3194 22.5405 18.3841 22.5978 18.4797C22.6689 18.5983 22.6689 19.1678 22.4318 19.8323C22.1947 20.4967 21.0577 21.1031 20.511 21.1847C20.0206 21.258 19.4003 21.2885 18.7185 21.072C18.3053 20.9409 17.7752 20.766 17.0962 20.4729C14.4284 19.3214 12.6255 16.7371 12.2847 16.2486C12.2608 16.2143 12.2441 16.1904 12.2348 16.178L12.2323 16.1746C12.081 15.9728 11.0728 14.6278 11.0728 13.2356C11.0728 11.9252 11.7168 11.2384 12.0132 10.9224C12.0335 10.9008 12.0521 10.8809 12.0688 10.8627C12.3296 10.5779 12.6379 10.5067 12.8277 10.5067C13.0174 10.5067 13.2073 10.5085 13.3731 10.5167C13.3935 10.5178 13.4148 10.5177 13.4368 10.5175C13.6026 10.5166 13.8094 10.5154 14.0134 11.005C14.0918 11.1933 14.2065 11.4725 14.3275 11.767C14.5725 12.363 14.8432 13.0217 14.8908 13.117C14.9619 13.2594 15.0094 13.4255 14.9145 13.6153C14.9003 13.6439 14.8871 13.6708 14.8744 13.6965C14.8032 13.8419 14.7508 13.9488 14.6299 14.0899C14.5825 14.1452 14.5335 14.2049 14.4845 14.2645C14.3865 14.3838 14.2884 14.5032 14.203 14.5882C14.0606 14.73 13.9123 14.884 14.0783 15.1687C14.2443 15.4534 14.8154 16.3848 15.6614 17.1391C16.5709 17.9499 17.3614 18.2926 17.762 18.4663C17.8402 18.5002 17.9035 18.5276 17.9499 18.5509C18.2345 18.6933 18.4005 18.6695 18.5664 18.4797C18.7325 18.2898 19.2779 17.6491 19.4676 17.3644C19.6572 17.0797 19.847 17.1272 20.1078 17.222C20.3687 17.317 21.7678 18.0051 22.0524 18.1474C22.1079 18.1752 22.1598 18.2003 22.208 18.2235Z" fill="#FF9431"/>
</svg>
